<?xml version="1.0" encoding="UTF-8" standalone="no"?>
<svg
   version="1.1"
   width="8740"
   height="1953"
   style="clip-rule:evenodd;fill-rule:evenodd;image-rendering:optimizeQuality;shape-rendering:geometricPrecision;text-rendering:geometricPrecision"
   id="svg1"
   sodipodi:docname="logo-wide.svg"
   inkscape:version="1.3.2 (091e20ef0f, 2023-11-25)"
   xmlns:inkscape="http://www.inkscape.org/namespaces/inkscape"
   xmlns:sodipodi="http://sodipodi.sourceforge.net/DTD/sodipodi-0.dtd"
   xmlns="http://www.w3.org/2000/svg"
   xmlns:svg="http://www.w3.org/2000/svg">
  <defs
     id="defs1">
    <rect
       x="77.334435"
       y="1953.2942"
       width="52.461403"
       height="13.675843"
       id="rect2" />
    <rect
       x="424.05624"
       y="2043.1039"
       width="1034.2473"
       height="142.65443"
       id="rect1" />
  </defs>
  <sodipodi:namedview
     id="namedview1"
     pagecolor="#ffffff"
     bordercolor="#000000"
     borderopacity="0.25"
     inkscape:showpageshadow="2"
     inkscape:pageopacity="0.0"
     inkscape:pagecheckerboard="0"
     inkscape:deskcolor="#d1d1d1"
     inkscape:zoom="0.18646185"
     inkscape:cx="4277.0143"
     inkscape:cy="1437.2913"
     inkscape:window-width="2558"
     inkscape:window-height="1408"
     inkscape:window-x="0"
     inkscape:window-y="0"
     inkscape:window-maximized="1"
     inkscape:current-layer="svg1" />
  <g
     id="g1"
     transform="translate(0.5,0.5)">
    <path
       style="opacity:0.997"
       fill="#476f95"
       d="m 864.5,-0.5 c 28.667,0 57.333,0 86,0 269.14,17.9829 489.97,129.65 662.5,335 120.15,149.501 187.31,320.501 201.5,513 -120.7,4.861 -221.7,51.528 -303,140 19.51,-178.039 -27.33,-336.039 -140.5,-474 -122.52,-138.743 -276.86,-210.076 -463,-214 -193.515,4.268 -351.849,80.268 -475,228 -103.934,133.529 -146.934,284.863 -129,454 22.94,166.74 99.774,302.24 230.5,406.5 142.114,107.03 301.448,146.69 478,119 172.12,-33.24 306.96,-122.08 404.5,-266.5 7.59,-12.17 14.92,-24.5 22,-37 18.06,-39.12 36.39,-78.12 55,-117 62.1,-108.022 154.93,-172.189 278.5,-192.5 115.74,-14.634 217.07,16.366 304,93 84.61,83.11 124.11,184.27 118.5,303.5 -3.8,56.21 -17.47,109.87 -41,161 -17.84,37.46 -38.51,73.12 -62,107 -31.89,43.9 -66.06,86.07 -102.5,126.5 77.33,0.5 154.67,0.67 232,0.5 0,89 0,178 0,267 -196.33,0 -392.67,0 -589,0 -0.17,-89.67 0,-179.33 0.5,-269 75.79,-63.77 140.79,-136.77 195,-219 27.12,-40.59 48.12,-84.25 63,-131 8.39,-26.81 11.05,-54.14 8,-82 -12.09,-43.97 -40.93,-64.14 -86.5,-60.5 -17.65,2.66 -32.15,10.83 -43.5,24.5 -4,6 -8,12 -12,18 -91.48,227.82 -247.98,394.65 -469.5,500.5 -189.05,84.52 -384.717,104.19 -587,59 C 489.534,1741.2 317.701,1630.03 185,1459.5 71.8902,1309.38 10.0569,1140.04 -0.5,951.5 c 0,-29 0,-58 0,-87 C 15.337,613.02 115.337,402.187 299.5,232 460.413,89.594 648.746,12.094 864.5,-0.5 Z"
       id="path1" />
  </g>
  <text
     xml:space="preserve"
     id="text1"
     style="white-space:pre;shape-inside:url(#rect1);fill:#000000" />
  <path
     d="m 3412.9585,943.89312 v 65.21328 q 0,232.4747 -112.698,365.0305 -112.6976,132.5436 -301.2361,132.5436 -183.5772,0 -299.8186,-132.5436 -116.2421,-132.5558 -116.2421,-365.0305 v -65.21328 q 0,-231.77265 115.5331,-364.31625 115.5332,-133.25739 299.1099,-133.25739 188.5383,0 301.9454,133.25739 113.4064,132.5436 113.4064,364.31625 z m -135.3791,65.21328 v -66.62848 q 0,-184.28116 -73.7145,-282.09496 -73.7142,-97.8142 -206.2582,-97.8142 -126.8735,0 -203.4231,97.8142 -75.8403,97.8138 -75.8403,282.09496 v 66.62848 q 0,185.6968 76.5491,284.2243 77.2581,97.8142 204.132,97.8142 133.2529,0 205.5493,-97.8142 73.0057,-98.5275 73.0057,-284.2243 z m 412.5164,-548.60945 248.0771,395.50181 248.0768,-395.50181 h 159.4783 l -326.0441,511.03737 333.8408,520.96868 h -160.8956 l -254.4562,-403.3042 -254.4562,403.3042 h -160.8956 l 333.841,-520.96868 -326.0443,-511.03737 z m 968.209,0 V 1492.503 H 4521.5084 V 460.49695 Z M 4906.382,1492.503 V 460.49695 h 292.0218 q 203.4229,0 328.8789,131.12821 126.165,130.4146 126.165,354.39706 v 61.66898 q 0,223.9706 -126.8739,354.3852 -126.1637,130.4266 -340.9279,130.4266 z m 292.0218,-920.01484 h -155.2251 v 808.72524 h 142.4672 q 165.1485,0 248.786,-102.0601 83.6367,-102.0719 83.6367,-271.4621 v -63.08438 q 0,-177.90606 -83.6367,-275.01826 -83.6375,-97.1004 -236.0281,-97.1004 z M 6462.1788,1492.503 6238.2013,1074.3077 H 5995.7942 V 1492.503 H 5858.9975 V 460.49695 h 341.6377 q 173.654,0 267.2134,79.3908 94.2698,79.37861 94.2698,230.35731 0,96.38666 -52.4501,168.68876 -51.7423,71.58788 -143.8856,107.03158 l 242.4071,438.0336 v 8.4676 z M 5995.7942,572.48816 v 390.54206 h 209.0937 q 109.8625,0 165.1482,-55.9957 55.9943,-56.69706 55.9943,-136.78946 0,-89.3097 -53.8678,-143.1767 -53.1588,-54.5802 -171.5274,-54.5802 z M 6900.2117,460.49695 V 1492.503 H 6763.4149 V 460.49695 Z m 1033.4179,0 L 7551.5915,1492.503 H 7430.3887 L 7049.0577,460.49695 h 148.1377 l 292.7308,850.55565 295.5659,-850.55565 z M 8072.5532,1492.503 V 460.49695 h 648.5442 V 572.48816 H 8209.35 v 331.71586 h 446.5378 V 1015.4814 H 8209.35 v 365.732 h 518.835 v 111.2896 z"
     id="text2"
     style="font-family:Roboto;-inkscape-font-specification:Roboto;white-space:pre;fill:#143b62;stroke-width:120.967;fill-opacity:1"
     aria-label="OXIDRIVE" />
</svg>
