<?xml version="1.0" encoding="UTF-8" standalone="no"?>
<svg
   version="1.1"
   width="2222"
   height="2222"
   style="clip-rule:evenodd;fill-rule:evenodd;image-rendering:optimizeQuality;shape-rendering:geometricPrecision;text-rendering:geometricPrecision"
   id="svg1"
   sodipodi:docname="logo-with-name.svg"
   inkscape:version="1.3.2 (091e20ef0f, 2023-11-25)"
   xmlns:inkscape="http://www.inkscape.org/namespaces/inkscape"
   xmlns:sodipodi="http://sodipodi.sourceforge.net/DTD/sodipodi-0.dtd"
   xmlns="http://www.w3.org/2000/svg"
   xmlns:svg="http://www.w3.org/2000/svg">
  <defs
     id="defs1">
    <rect
       x="77.334435"
       y="1953.2942"
       width="52.461403"
       height="13.675843"
       id="rect2" />
    <rect
       x="424.05625"
       y="2043.1039"
       width="1034.2473"
       height="142.65443"
       id="rect1" />
  </defs>
  <sodipodi:namedview
     id="namedview1"
     pagecolor="#ffffff"
     bordercolor="#000000"
     borderopacity="0.25"
     inkscape:showpageshadow="2"
     inkscape:pageopacity="0.0"
     inkscape:pagecheckerboard="0"
     inkscape:deskcolor="#d1d1d1"
     inkscape:zoom="0.26369688"
     inkscape:cx="1888.532"
     inkscape:cy="1835.4408"
     inkscape:window-width="2558"
     inkscape:window-height="1408"
     inkscape:window-x="0"
     inkscape:window-y="0"
     inkscape:window-maximized="1"
     inkscape:current-layer="svg1" />
  <g
     id="g1"
     transform="translate(0.5,0.5)">
    <path
       style="opacity:0.997"
       fill="#476f95"
       d="m 864.5,-0.5 c 28.667,0 57.333,0 86,0 269.14,17.9829 489.97,129.65 662.5,335 120.15,149.501 187.31,320.501 201.5,513 -120.7,4.861 -221.7,51.528 -303,140 19.51,-178.039 -27.33,-336.039 -140.5,-474 -122.52,-138.743 -276.86,-210.076 -463,-214 -193.515,4.268 -351.849,80.268 -475,228 -103.934,133.529 -146.934,284.863 -129,454 22.94,166.74 99.774,302.24 230.5,406.5 142.114,107.03 301.448,146.69 478,119 172.12,-33.24 306.96,-122.08 404.5,-266.5 7.59,-12.17 14.92,-24.5 22,-37 18.06,-39.12 36.39,-78.12 55,-117 62.1,-108.022 154.93,-172.189 278.5,-192.5 115.74,-14.634 217.07,16.366 304,93 84.61,83.11 124.11,184.27 118.5,303.5 -3.8,56.21 -17.47,109.87 -41,161 -17.84,37.46 -38.51,73.12 -62,107 -31.89,43.9 -66.06,86.07 -102.5,126.5 77.33,0.5 154.67,0.67 232,0.5 0,89 0,178 0,267 -196.33,0 -392.67,0 -589,0 -0.17,-89.67 0,-179.33 0.5,-269 75.79,-63.77 140.79,-136.77 195,-219 27.12,-40.59 48.12,-84.25 63,-131 8.39,-26.81 11.05,-54.14 8,-82 -12.09,-43.97 -40.93,-64.14 -86.5,-60.5 -17.65,2.66 -32.15,10.83 -43.5,24.5 -4,6 -8,12 -12,18 -91.48,227.82 -247.98,394.65 -469.5,500.5 -189.05,84.52 -384.717,104.19 -587,59 C 489.534,1741.2 317.701,1630.03 185,1459.5 71.8902,1309.38 10.0569,1140.04 -0.5,951.5 c 0,-29 0,-58 0,-87 C 15.337,613.02 115.337,402.187 299.5,232 460.413,89.594 648.746,12.094 864.5,-0.5 Z"
       id="path1" />
  </g>
  <text
     xml:space="preserve"
     id="text1"
     style="fill:#000000;white-space:pre;shape-inside:url(#rect1)" />
  <path
     d="m 84.892578,1959.794 v 0.5391 q 0,1.9218 -0.931641,3.0176 -0.93164,1.0957 -2.490234,1.0957 -1.517578,0 -2.478516,-1.0957 -0.960937,-1.0958 -0.960937,-3.0176 v -0.5391 q 0,-1.916 0.955078,-3.0117 0.955078,-1.1016 2.472656,-1.1016 1.558594,0 2.496094,1.1016 0.9375,1.0957 0.9375,3.0117 z m -1.119141,0.5391 v -0.5508 q 0,-1.5234 -0.609375,-2.332 -0.609375,-0.8086 -1.705078,-0.8086 -1.048828,0 -1.68164,0.8086 -0.626953,0.8086 -0.626953,2.332 v 0.5508 q 0,1.5351 0.632812,2.3496 0.638672,0.8086 1.6875,0.8086 1.101563,0 1.699219,-0.8086 0.603515,-0.8145 0.603515,-2.3496 z m 3.410157,-4.5352 2.050781,3.2695 2.050781,-3.2695 h 1.31836 l -2.695313,4.2246 2.759766,4.3067 h -1.330078 l -2.103516,-3.334 -2.103516,3.334 h -1.330078 l 2.759766,-4.3067 -2.695313,-4.2246 z m 8.003906,0 v 8.5313 h -1.130859 v -8.5313 z m 2.050781,8.5313 v -8.5313 h 2.414063 q 1.681636,0 2.718746,1.084 1.04297,1.0781 1.04297,2.9297 v 0.5098 q 0,1.8515 -1.04883,2.9296 -1.04296,1.0782 -2.818355,1.0782 z m 2.414063,-7.6055 h -1.283203 v 6.6855 h 1.177734 q 1.365235,0 2.056645,-0.8437 0.6914,-0.8438 0.6914,-2.2441 v -0.5215 q 0,-1.4707 -0.6914,-2.2735 -0.69141,-0.8027 -1.951176,-0.8027 z m 10.447266,7.6055 -1.85156,-3.4571 h -2.00391 v 3.4571 h -1.13086 v -8.5313 h 2.82422 q 1.43555,0 2.20898,0.6563 0.7793,0.6562 0.7793,1.9043 0,0.7968 -0.43359,1.3945 -0.42774,0.5918 -1.18946,0.8848 l 2.00391,3.6211 v 0.07 z m -3.85547,-7.6055 v 3.2285 h 1.72852 q 0.9082,0 1.36523,-0.4629 0.46289,-0.4687 0.46289,-1.1308 0,-0.7383 -0.44531,-1.1836 -0.43945,-0.4512 -1.41797,-0.4512 z m 7.47656,-0.9258 v 8.5313 h -1.13086 v -8.5313 z m 8.54297,0 -3.1582,8.5313 h -1.00195 l -3.15235,-8.5313 h 1.22461 l 2.41992,7.0313 2.44336,-7.0313 z m 1.14844,8.5313 v -8.5313 h 5.36133 v 0.9258 h -4.23047 v 2.7422 h 3.6914 v 0.9199 h -3.6914 v 3.0234 h 4.28906 v 0.92 z"
     id="text2"
     style="font-family:Roboto;-inkscape-font-specification:Roboto;white-space:pre;fill:#476f95"
     transform="matrix(29.91448,0,0,29.91448,-1983.1037,-56543.39)"
     aria-label="OXIDRIVE" />
</svg>
