<?xml version="1.0" encoding="UTF-8" standalone="no"?>
<svg
   version="1.1"
   width="2150"
   height="2150"
   style="clip-rule:evenodd;fill-rule:evenodd;image-rendering:optimizeQuality;shape-rendering:geometricPrecision;text-rendering:geometricPrecision"
   id="svg1"
   sodipodi:docname="logo-white-with-name.svg"
   inkscape:version="1.3.2 (091e20ef0f, 2023-11-25)"
   xmlns:inkscape="http://www.inkscape.org/namespaces/inkscape"
   xmlns:sodipodi="http://sodipodi.sourceforge.net/DTD/sodipodi-0.dtd"
   xmlns="http://www.w3.org/2000/svg"
   xmlns:svg="http://www.w3.org/2000/svg">
  <defs
     id="defs1">
    <rect
       x="77.334435"
       y="1953.2942"
       width="52.461403"
       height="13.675843"
       id="rect2" />
    <rect
       x="424.05624"
       y="2043.1039"
       width="1034.2473"
       height="142.65443"
       id="rect1" />
  </defs>
  <sodipodi:namedview
     id="namedview1"
     pagecolor="#ffffff"
     bordercolor="#000000"
     borderopacity="0.25"
     inkscape:showpageshadow="2"
     inkscape:pageopacity="0.0"
     inkscape:pagecheckerboard="0"
     inkscape:deskcolor="#d1d1d1"
     inkscape:zoom="0.3729237"
     inkscape:cx="1626.338"
     inkscape:cy="1311.2602"
     inkscape:window-width="2558"
     inkscape:window-height="1408"
     inkscape:window-x="0"
     inkscape:window-y="0"
     inkscape:window-maximized="1"
     inkscape:current-layer="svg1" />
  <g
     id="g1"
     transform="matrix(0.89881592,0,0,0.89881592,76.864921,0.44940796)"
     style="fill:#e8edf2;fill-opacity:1">
    <path
       style="opacity:0.997;fill:#e8edf2;fill-opacity:1"
       fill="#476f95"
       d="m 864.5,-0.5 c 28.667,0 57.333,0 86,0 269.14,17.9829 489.97,129.65 662.5,335 120.15,149.501 187.31,320.501 201.5,513 -120.7,4.861 -221.7,51.528 -303,140 19.51,-178.039 -27.33,-336.039 -140.5,-474 -122.52,-138.743 -276.86,-210.076 -463,-214 -193.515,4.268 -351.849,80.268 -475,228 -103.934,133.529 -146.934,284.863 -129,454 22.94,166.74 99.774,302.24 230.5,406.5 142.114,107.03 301.448,146.69 478,119 172.12,-33.24 306.96,-122.08 404.5,-266.5 7.59,-12.17 14.92,-24.5 22,-37 18.06,-39.12 36.39,-78.12 55,-117 62.1,-108.022 154.93,-172.189 278.5,-192.5 115.74,-14.634 217.07,16.366 304,93 84.61,83.11 124.11,184.27 118.5,303.5 -3.8,56.21 -17.47,109.87 -41,161 -17.84,37.46 -38.51,73.12 -62,107 -31.89,43.9 -66.06,86.07 -102.5,126.5 77.33,0.5 154.67,0.67 232,0.5 0,89 0,178 0,267 -196.33,0 -392.67,0 -589,0 -0.17,-89.67 0,-179.33 0.5,-269 75.79,-63.77 140.79,-136.77 195,-219 27.12,-40.59 48.12,-84.25 63,-131 8.39,-26.81 11.05,-54.14 8,-82 -12.09,-43.97 -40.93,-64.14 -86.5,-60.5 -17.65,2.66 -32.15,10.83 -43.5,24.5 -4,6 -8,12 -12,18 -91.48,227.82 -247.98,394.65 -469.5,500.5 -189.05,84.52 -384.717,104.19 -587,59 C 489.534,1741.2 317.701,1630.03 185,1459.5 71.8902,1309.38 10.0569,1140.04 -0.5,951.5 c 0,-29 0,-58 0,-87 C 15.337,613.02 115.337,402.187 299.5,232 460.413,89.594 648.746,12.094 864.5,-0.5 Z"
       id="path1" />
  </g>
  <text
     xml:space="preserve"
     id="text1"
     style="white-space:pre;shape-inside:url(#rect1);display:inline;fill:#000000" />
  <path
     d="m 346.16001,1967.0967 v 21.1941 q 0,75.5531 -36.6263,118.6331 Q 272.90745,2150 211.63328,2150 q -59.66167,0 -97.43974,-43.0761 -37.778041,-43.08 -37.778041,-118.6331 v -21.1941 q 0,-75.3251 37.547701,-118.4012 37.54769,-43.308 97.20936,-43.308 61.27417,0 98.13081,43.308 36.85664,43.0761 36.85664,118.4012 z m -43.99763,21.1941 v -21.654 q 0,-59.8907 -23.95681,-91.6797 -23.9568,-31.7892 -67.03301,-31.7892 -41.23336,0 -66.11157,31.7892 -24.64787,31.789 -24.64787,91.6797 v 21.654 q 0,60.3505 24.87822,92.3716 25.10858,31.789 66.34194,31.789 43.30657,0 66.80266,-31.789 23.72644,-32.0211 23.72644,-92.3716 z m 134.06605,-178.2957 80.62388,128.5363 80.62387,-128.5363 h 51.82967 l -105.96284,166.0848 108.49673,169.3125 h -52.29035 l -82.69709,-131.072 -82.69709,131.072 H 381.86487 L 490.36161,1976.0799 384.39876,1809.9951 Z m 314.6635,0 v 335.3973 h -44.45832 v -335.3973 z m 80.62388,335.3973 v -335.3973 h 94.90588 q 66.11142,0 106.88411,42.6161 41.003,42.3841 41.003,115.1774 v 20.0422 q 0,72.7894 -41.2335,115.1735 -41.00259,42.3881 -110.80003,42.3881 z m 94.90588,-299.0006 h -50.44748 v 262.832 h 46.30106 q 53.67254,0 80.85443,-33.1691 27.1815,-33.1729 27.1815,-88.2239 v -20.5022 q 0,-57.8187 -27.1815,-89.3797 -27.18189,-31.5571 -76.70801,-31.5571 z m 410.72111,299.0006 -72.7917,-135.9115 h -78.7813 v 135.9115 h -44.4583 v -335.3973 h 111.0307 q 56.4369,0 86.8433,25.8016 30.6371,25.7976 30.6371,74.8652 0,31.3252 -17.046,54.823 -16.8161,23.2658 -46.7621,34.7847 l 78.7812,142.359 v 2.752 z m -151.573,-299.0006 v 126.9244 h 67.9546 q 35.7047,0 53.6723,-18.1983 18.198,-18.4264 18.198,-44.456 0,-29.0254 -17.5068,-46.5319 -17.2765,-17.7382 -55.7457,-17.7382 z m 293.9317,-36.3967 v 335.3973 h -44.4584 v -335.3973 z m 335.8561,0 -124.1607,335.3973 h -39.3904 l -123.9307,-335.3973 h 48.1441 l 95.1361,276.4267 96.0577,-276.4267 z m 45.1495,335.3973 v -335.3973 h 210.7739 v 36.3967 h -166.3156 v 107.8061 h 145.1228 v 36.1647 h -145.1228 v 118.8612 h 168.6191 v 36.1686 z"
     id="text2"
     style="font-family:Roboto;-inkscape-font-specification:Roboto;white-space:pre;fill:#e8edf2;fill-opacity:1;stroke-width:39.3138"
     aria-label="OXIDRIVE" />
</svg>
